<?xml version="1.0" encoding="UTF-8" standalone="no"?>
<!DOCTYPE svg PUBLIC "-//W3C//DTD SVG 1.1//EN" "http://www.w3.org/Graphics/SVG/1.1/DTD/svg11.dtd">
<svg width="903.0" height="263.0" viewBox="-1 -1 902.0 262.0" xmlns="http://www.w3.org/2000/svg" xmlns:xlink="http://www.w3.org/1999/xlink">
<g font-family="Arial" font-size="10px" font-size-adjust="0.518"><g fill="#eee" stroke="#ccc" stroke-linejoin="round"><rect x="1" y="1" width="38" height="38"/><rect x="81" y="1" width="38" height="38"/><rect x="121" y="1" width="38" height="38"/><rect x="161" y="1" width="38" height="38"/><rect x="201" y="1" width="38" height="38"/><rect x="261.0" y="1" width="38" height="38"/><rect x="301.0" y="1" width="38" height="38"/><rect x="341.0" y="1" width="38" height="38"/><rect x="381.0" y="1" width="38" height="38"/><rect x="441.0" y="1" width="38" height="38"/><rect x="481.0" y="1" width="38" height="38"/><rect x="521.0" y="1" width="38" height="38"/><rect x="561.0" y="1" width="38" height="38"/><rect x="1" y="61.0" width="38" height="38"/><rect x="41" y="61.0" width="38" height="38"/><rect x="81" y="61.0" width="38" height="38"/><rect x="121" y="61.0" width="38" height="38"/><rect x="161" y="61.0" width="38" height="38"/><rect x="201" y="61.0" width="38" height="38"/><rect x="241" y="61.0" width="38" height="38"/><rect x="281" y="61.0" width="38" height="38"/><rect x="321" y="61.0" width="38" height="38"/><rect x="361" y="61.0" width="38" height="38"/><rect x="401" y="61.0" width="38" height="38"/><rect x="441" y="61.0" width="38" height="38"/><rect x="481" y="61.0" width="38" height="38"/><rect x="521" y="61.0" width="78" height="38"/><rect x="1" y="101.0" width="58.0" height="38"/><rect x="61.0" y="101.0" width="38" height="38"/><rect x="101.0" y="101.0" width="38" height="38"/><rect x="141.0" y="101.0" width="38" height="38"/><rect x="181.0" y="101.0" width="38" height="38"/><rect x="221.0" y="101.0" width="38" height="38"/><rect x="261.0" y="101.0" width="38" height="38"/><rect x="301.0" y="101.0" width="38" height="38"/><rect x="341.0" y="101.0" width="38" height="38"/><rect x="381.0" y="101.0" width="38" height="38"/><rect x="421.0" y="101.0" width="38" height="38"/><rect x="461.0" y="101.0" width="38" height="38"/><rect x="501.0" y="101.0" width="38" height="38"/><rect x="1" y="141.0" width="68.0" height="38"/><rect x="71.0" y="141.0" width="38" height="38"/><rect x="111.0" y="141.0" width="38" height="38"/><rect x="151.0" y="141.0" width="38" height="38"/><rect x="191.0" y="141.0" width="38" height="38"/><rect x="231.0" y="141.0" width="38" height="38"/><rect x="271.0" y="141.0" width="38" height="38"/><rect x="311.0" y="141.0" width="38" height="38"/><rect x="351.0" y="141.0" width="38" height="38"/><rect x="391.0" y="141.0" width="38" height="38"/><rect x="431.0" y="141.0" width="38" height="38"/><rect x="471.0" y="141.0" width="38" height="38"/><rect x="511.0" y="141.0" width="38" height="38"/><polygon points="541.0,101.0 599.0,101.0 599.0,179.0 551.0,179.0 551.0,139.0 541.0,139.0 541.0,101.0"/><rect x="1" y="181.0" width="48.0" height="38"/><rect x="51.0" y="181.0" width="38" height="38"/><rect x="91.0" y="181.0" width="38" height="38"/><rect x="131.0" y="181.0" width="38" height="38"/><rect x="171.0" y="181.0" width="38" height="38"/><rect x="211.0" y="181.0" width="38" height="38"/><rect x="251.0" y="181.0" width="38" height="38"/><rect x="291.0" y="181.0" width="38" height="38"/><rect x="331.0" y="181.0" width="38" height="38"/><rect x="371.0" y="181.0" width="38" height="38"/><rect x="411.0" y="181.0" width="38" height="38"/><rect x="451.0" y="181.0" width="38" height="38"/><rect x="491.0" y="181.0" width="108.0" height="38"/><rect x="1" y="221.0" width="48.0" height="38"/><rect x="51.0" y="221.0" width="48.0" height="38"/><rect x="101.0" y="221.0" width="48.0" height="38"/><rect x="151.0" y="221.0" width="248.0" height="38"/><rect x="401.0" y="221.0" width="48.0" height="38"/><rect x="451.0" y="221.0" width="48.0" height="38"/><rect x="501.0" y="221.0" width="48.0" height="38"/><rect x="551.0" y="221.0" width="48.0" height="38"/><rect x="611.0" y="1" width="38" height="38"/><rect x="651.0" y="1" width="38" height="38"/><rect x="691.0" y="1" width="38" height="38"/><rect x="611.0" y="61.0" width="38" height="38"/><rect x="651.0" y="61.0" width="38" height="38"/><rect x="691.0" y="61.0" width="38" height="38"/><rect x="611.0" y="101.0" width="38" height="38"/><rect x="651.0" y="101.0" width="38" height="38"/><rect x="691.0" y="101.0" width="38" height="38"/><rect x="651.0" y="181.0" width="38" height="38"/><rect x="611.0" y="221.0" width="38" height="38"/><rect x="651.0" y="221.0" width="38" height="38"/><rect x="691.0" y="221.0" width="38" height="38"/><rect x="741.0" y="61.0" width="38" height="38"/><rect x="781.0" y="61.0" width="38" height="38"/><rect x="821.0" y="61.0" width="38" height="38"/><rect x="861.0" y="61.0" width="38" height="38"/><rect x="741.0" y="101.0" width="38" height="38"/><rect x="781.0" y="101.0" width="38" height="38"/><rect x="821.0" y="101.0" width="38" height="38"/><rect x="741.0" y="141.0" width="38" height="38"/><rect x="781.0" y="141.0" width="38" height="38"/><rect x="821.0" y="141.0" width="38" height="38"/><rect x="861.0" y="101.0" width="38" height="78.0"/><rect x="741.0" y="181.0" width="38" height="38"/><rect x="781.0" y="181.0" width="38" height="38"/><rect x="821.0" y="181.0" width="38" height="38"/><rect x="741.0" y="221.0" width="78" height="38"/><rect x="821.0" y="221.0" width="38" height="38"/><rect x="861.0" y="181.0" width="38" height="78.0"/></g>
<g fill="#333" text-anchor="middle" text-align="center"><text x="20.0" y="20.0">ESC</text><text x="100.0" y="20.0">F1</text><text x="140.0" y="20.0">F2</text><text x="180.0" y="20.0">F3</text><text x="220.0" y="20.0">F4</text><text x="280.0" y="20.0">F5</text><text x="320.0" y="20.0">F6</text><text x="360.0" y="20.0">F7</text><text x="400.0" y="20.0">F8</text><text x="460.0" y="20.0">F9</text><text x="500.0" y="20.0">F10</text><text x="540.0" y="20.0">F11</text><text x="580.0" y="20.0">F12</text><text x="20.0" y="80.0">;</text><text x="60.0" y="80.0">plus</text><text x="100.0" y="80.0">+ecaron</text><text x="140.0" y="80.0">+scaron</text><text x="180.0" y="80.0">+ccaron</text><text x="220.0" y="80.0">+rcaron</text><text x="260.0" y="80.0">+zcaron</text><text x="300.0" y="80.0">+yacute</text><text x="340.0" y="80.0">+aacute</text><text x="380.0" y="80.0">+iacute</text><text x="420.0" y="80.0">+eacute</text><text x="460.0" y="80.0">=</text><text x="500.0" y="80.0">dead_acute</text><text x="560.0" y="80.0">BACKSPACE</text><text x="30.0" y="120.0">TAB</text><text x="80.0" y="120.0">+q</text><text x="120.0" y="120.0">+w</text><text x="160.0" y="120.0">+e</text><text x="200.0" y="120.0">+r</text><text x="240.0" y="120.0">+t</text><text x="280.0" y="120.0">+y</text><text x="320.0" y="120.0">+u</text><text x="360.0" y="120.0">+i</text><text x="400.0" y="120.0">+o</text><text x="440.0" y="120.0">+p</text><text x="480.0" y="120.0">+uacute</text><text x="520.0" y="120.0">parenright</text><text x="35.0" y="160.0"><tspan x="35.0" dy="0">CAPS</tspan><tspan x="35.0" dy="1em">LOCK</tspan></text><text x="90.0" y="160.0">+a</text><text x="130.0" y="160.0">+s</text><text x="170.0" y="160.0">+d</text><text x="210.0" y="160.0">+f</text><text x="250.0" y="160.0">+g</text><text x="290.0" y="160.0">+h</text><text x="330.0" y="160.0">+j</text><text x="370.0" y="160.0">+k</text><text x="410.0" y="160.0">+l</text><text x="450.0" y="160.0">+uring</text><text x="490.0" y="160.0">section</text><text x="530.0" y="160.0">dead_diaeresis</text><text x="570.0" y="120.0">↵</text><text x="25.0" y="200.0">ShiftL</text><text x="70.0" y="200.0">\</text><text x="110.0" y="200.0">+z</text><text x="150.0" y="200.0">+x</text><text x="190.0" y="200.0">+c</text><text x="230.0" y="200.0">+v</text><text x="270.0" y="200.0">+b</text><text x="310.0" y="200.0">+n</text><text x="350.0" y="200.0">+m</text><text x="390.0" y="200.0">,</text><text x="430.0" y="200.0">.</text><text x="470.0" y="200.0">-</text><text x="545.0" y="200.0">ShiftL</text><text x="25.0" y="240.0">CTRL</text><text x="75.0" y="240.0">?WIN</text><text x="125.0" y="240.0">ALT</text><text x="275.0" y="240.0">SPACE</text><text x="425.0" y="240.0">ALTGR</text><text x="475.0" y="240.0">?WIN</text><text x="525.0" y="240.0">?MENU</text><text x="575.0" y="240.0">CTRL</text><text x="630.0" y="20.0">dead_acute</text><text x="670.0" y="20.0"><tspan x="670.0" dy="0">SCROLL</tspan><tspan x="670.0" dy="1em">LOCK</tspan></text><text x="710.0" y="20.0">BREAK</text><text x="630.0" y="80.0">INS</text><text x="670.0" y="80.0">?HOME</text><text x="710.0" y="80.0">?PGUP</text><text x="630.0" y="120.0">DEL</text><text x="670.0" y="120.0">?END</text><text x="710.0" y="120.0">?PGDN</text><text x="670.0" y="200.0">↑</text><text x="630.0" y="240.0">←</text><text x="670.0" y="240.0">↓</text><text x="710.0" y="240.0">→</text><text x="760.0" y="80.0"><tspan x="760.0" dy="0">NUM</tspan><tspan x="760.0" dy="1em">LOCK</tspan></text><text x="800.0" y="80.0"><tspan x="800.0" dy="0">/</tspan><tspan x="800.0" dy="1em">(KP)</tspan></text><text x="840.0" y="80.0"><tspan x="840.0" dy="0">*</tspan><tspan x="840.0" dy="1em">(KP)</tspan></text><text x="880.0" y="80.0"><tspan x="880.0" dy="0">-</tspan><tspan x="880.0" dy="1em">(KP)</tspan></text><text x="760.0" y="120.0"><tspan x="760.0" dy="0">7</tspan><tspan x="760.0" dy="1em">(KP)</tspan></text><text x="800.0" y="120.0"><tspan x="800.0" dy="0">8</tspan><tspan x="800.0" dy="1em">(KP)</tspan></text><text x="840.0" y="120.0"><tspan x="840.0" dy="0">9</tspan><tspan x="840.0" dy="1em">(KP)</tspan></text><text x="760.0" y="160.0"><tspan x="760.0" dy="0">4</tspan><tspan x="760.0" dy="1em">(KP)</tspan></text><text x="800.0" y="160.0"><tspan x="800.0" dy="0">5</tspan><tspan x="800.0" dy="1em">(KP)</tspan></text><text x="840.0" y="160.0"><tspan x="840.0" dy="0">6</tspan><tspan x="840.0" dy="1em">(KP)</tspan></text><text x="880.0" y="140.0"><tspan x="880.0" dy="0">+</tspan><tspan x="880.0" dy="1em">(KP)</tspan></text><text x="760.0" y="200.0"><tspan x="760.0" dy="0">1</tspan><tspan x="760.0" dy="1em">(KP)</tspan></text><text x="800.0" y="200.0"><tspan x="800.0" dy="0">2</tspan><tspan x="800.0" dy="1em">(KP)</tspan></text><text x="840.0" y="200.0"><tspan x="840.0" dy="0">3</tspan><tspan x="840.0" dy="1em">(KP)</tspan></text><text x="780.0" y="240.0"><tspan x="780.0" dy="0">0</tspan><tspan x="780.0" dy="1em">(KP)</tspan></text><text x="840.0" y="240.0"><tspan x="840.0" dy="0">.</tspan><tspan x="840.0" dy="1em">(KP)</tspan></text><text x="880.0" y="220.0"><tspan x="880.0" dy="0">Enter</tspan><tspan x="880.0" dy="1em">(KP)</tspan></text></g></g>
</svg>
