<?xml version="1.0" encoding="UTF-8" standalone="no"?>
<!DOCTYPE svg PUBLIC "-//W3C//DTD SVG 1.1//EN" "http://www.w3.org/Graphics/SVG/1.1/DTD/svg11.dtd">
<svg width="1353.0" height="393.0" viewBox="-1 -1 1352.0 392.0" xmlns="http://www.w3.org/2000/svg" xmlns:xlink="http://www.w3.org/1999/xlink">
<style>
.btn{fill:#eee;stroke:#ccc;stroke-linejoin:round}
.lbl{fill:#333;text-anchor:middle;text-align:center}
</style>
<g font-family="Arial" font-size="15px" font-size-adjust="0.518"><g><g onclick="alert('ESC')"><rect class="btn" x="1" y="1" width="58" height="58"/><text class="lbl" x="30.0" y="30.0">ESC</text></g><g onclick="alert('')"><rect class="btn" x="121" y="1" width="58" height="58"/><text class="lbl" x="150.0" y="30.0"></text></g><g onclick="alert('')"><rect class="btn" x="181" y="1" width="58" height="58"/><text class="lbl" x="210.0" y="30.0"></text></g><g onclick="alert('')"><rect class="btn" x="241" y="1" width="58" height="58"/><text class="lbl" x="270.0" y="30.0"></text></g><g onclick="alert('')"><rect class="btn" x="301" y="1" width="58" height="58"/><text class="lbl" x="330.0" y="30.0"></text></g><g onclick="alert('')"><rect class="btn" x="391.0" y="1" width="58" height="58"/><text class="lbl" x="420.0" y="30.0"></text></g><g onclick="alert('')"><rect class="btn" x="451.0" y="1" width="58" height="58"/><text class="lbl" x="480.0" y="30.0"></text></g><g onclick="alert('')"><rect class="btn" x="511.0" y="1" width="58" height="58"/><text class="lbl" x="540.0" y="30.0"></text></g><g onclick="alert('')"><rect class="btn" x="571.0" y="1" width="58" height="58"/><text class="lbl" x="600.0" y="30.0"></text></g><g onclick="alert('')"><rect class="btn" x="661.0" y="1" width="58" height="58"/><text class="lbl" x="690.0" y="30.0"></text></g><g onclick="alert('')"><rect class="btn" x="721.0" y="1" width="58" height="58"/><text class="lbl" x="750.0" y="30.0"></text></g><g onclick="alert('')"><rect class="btn" x="781.0" y="1" width="58" height="58"/><text class="lbl" x="810.0" y="30.0"></text></g><g onclick="alert('')"><rect class="btn" x="841.0" y="1" width="58" height="58"/><text class="lbl" x="870.0" y="30.0"></text></g><g onclick="alert('*')"><rect class="btn" x="1" y="91.0" width="58" height="58"/><text class="lbl" x="30.0" y="120.0">*</text></g><g onclick="alert('&')"><rect class="btn" x="61" y="91.0" width="58" height="58"/><text class="lbl" x="90.0" y="120.0">&amp;</text></g><g onclick="alert('{')"><rect class="btn" x="121" y="91.0" width="58" height="58"/><text class="lbl" x="150.0" y="120.0">{</text></g><g onclick="alert('"')"><rect class="btn" x="181" y="91.0" width="58" height="58"/><text class="lbl" x="210.0" y="120.0">&quot;</text></g><g onclick="alert(''')"><rect class="btn" x="241" y="91.0" width="58" height="58"/><text class="lbl" x="270.0" y="120.0">'</text></g><g onclick="alert('(')"><rect class="btn" x="301" y="91.0" width="58" height="58"/><text class="lbl" x="330.0" y="120.0">(</text></g><g onclick="alert('-')"><rect class="btn" x="361" y="91.0" width="58" height="58"/><text class="lbl" x="390.0" y="120.0">-</text></g><g onclick="alert('}')"><rect class="btn" x="421" y="91.0" width="58" height="58"/><text class="lbl" x="450.0" y="120.0">}</text></g><g onclick="alert('_')"><rect class="btn" x="481" y="91.0" width="58" height="58"/><text class="lbl" x="510.0" y="120.0">_</text></g><g onclick="alert('/')"><rect class="btn" x="541" y="91.0" width="58" height="58"/><text class="lbl" x="570.0" y="120.0">/</text></g><g onclick="alert('@')"><rect class="btn" x="601" y="91.0" width="58" height="58"/><text class="lbl" x="630.0" y="120.0">@</text></g><g onclick="alert(')')"><rect class="btn" x="661" y="91.0" width="58" height="58"/><text class="lbl" x="690.0" y="120.0">)</text></g><g onclick="alert('=')"><rect class="btn" x="721" y="91.0" width="58" height="58"/><text class="lbl" x="750.0" y="120.0">=</text></g><g onclick="alert('BACKSPACE')"><rect class="btn" x="781" y="91.0" width="118" height="58"/><text class="lbl" x="840.0" y="120.0">BACKSPACE</text></g><g onclick="alert('TAB')"><rect class="btn" x="1" y="151.0" width="88.0" height="58"/><text class="lbl" x="45.0" y="180.0">TAB</text></g><g onclick="alert('a')"><rect class="btn" x="91.0" y="151.0" width="58" height="58"/><text class="lbl" x="120.0" y="180.0">a</text></g><g onclick="alert('z')"><rect class="btn" x="151.0" y="151.0" width="58" height="58"/><text class="lbl" x="180.0" y="180.0">z</text></g><g onclick="alert('e')"><rect class="btn" x="211.0" y="151.0" width="58" height="58"/><text class="lbl" x="240.0" y="180.0">e</text></g><g onclick="alert('r')"><rect class="btn" x="271.0" y="151.0" width="58" height="58"/><text class="lbl" x="300.0" y="180.0">r</text></g><g onclick="alert('t')"><rect class="btn" x="331.0" y="151.0" width="58" height="58"/><text class="lbl" x="360.0" y="180.0">t</text></g><g onclick="alert('y')"><rect class="btn" x="391.0" y="151.0" width="58" height="58"/><text class="lbl" x="420.0" y="180.0">y</text></g><g onclick="alert('u')"><rect class="btn" x="451.0" y="151.0" width="58" height="58"/><text class="lbl" x="480.0" y="180.0">u</text></g><g onclick="alert('i')"><rect class="btn" x="511.0" y="151.0" width="58" height="58"/><text class="lbl" x="540.0" y="180.0">i</text></g><g onclick="alert('o')"><rect class="btn" x="571.0" y="151.0" width="58" height="58"/><text class="lbl" x="600.0" y="180.0">o</text></g><g onclick="alert('p')"><rect class="btn" x="631.0" y="151.0" width="58" height="58"/><text class="lbl" x="660.0" y="180.0">p</text></g><g onclick="alert('^')"><rect class="btn" x="691.0" y="151.0" width="58" height="58"/><text class="lbl" x="720.0" y="180.0">^</text></g><g onclick="alert('$')"><rect class="btn" x="751.0" y="151.0" width="58" height="58"/><text class="lbl" x="780.0" y="180.0">$</text></g><g onclick="alert('*')"><rect class="btn" x="811.0" y="151.0" width="88.0" height="58"/><text class="lbl" x="855.0" y="180.0">*</text></g><g onclick="alert('CAPS LOCK')"><rect class="btn" x="1" y="211.0" width="103.0" height="58"/><text class="lbl" x="52.5" y="240.0"><tspan x="52.5" dy="0">CAPS</tspan><tspan x="52.5" dy="1em">LOCK</tspan></text></g><g onclick="alert('q')"><rect class="btn" x="106.0" y="211.0" width="58" height="58"/><text class="lbl" x="135.0" y="240.0">q</text></g><g onclick="alert('s')"><rect class="btn" x="166.0" y="211.0" width="58" height="58"/><text class="lbl" x="195.0" y="240.0">s</text></g><g onclick="alert('d')"><rect class="btn" x="226.0" y="211.0" width="58" height="58"/><text class="lbl" x="255.0" y="240.0">d</text></g><g onclick="alert('f')"><rect class="btn" x="286.0" y="211.0" width="58" height="58"/><text class="lbl" x="315.0" y="240.0">f</text></g><g onclick="alert('g')"><rect class="btn" x="346.0" y="211.0" width="58" height="58"/><text class="lbl" x="375.0" y="240.0">g</text></g><g onclick="alert('h')"><rect class="btn" x="406.0" y="211.0" width="58" height="58"/><text class="lbl" x="435.0" y="240.0">h</text></g><g onclick="alert('j')"><rect class="btn" x="466.0" y="211.0" width="58" height="58"/><text class="lbl" x="495.0" y="240.0">j</text></g><g onclick="alert('k')"><rect class="btn" x="526.0" y="211.0" width="58" height="58"/><text class="lbl" x="555.0" y="240.0">k</text></g><g onclick="alert('l')"><rect class="btn" x="586.0" y="211.0" width="58" height="58"/><text class="lbl" x="615.0" y="240.0">l</text></g><g onclick="alert('m')"><rect class="btn" x="646.0" y="211.0" width="58" height="58"/><text class="lbl" x="675.0" y="240.0">m</text></g><g onclick="alert('|')"><rect class="btn" x="706.0" y="211.0" width="58" height="58"/><text class="lbl" x="735.0" y="240.0">|</text></g><g onclick="alert('↵')"><rect class="btn" x="766.0" y="211.0" width="133.0" height="58"/><text class="lbl" x="832.5" y="240.0">↵</text></g><g onclick="alert('SHIFT')"><rect class="btn" x="1" y="271.0" width="133.0" height="58"/><text class="lbl" x="67.5" y="300.0">SHIFT</text></g><g onclick="alert('w')"><rect class="btn" x="136.0" y="271.0" width="58" height="58"/><text class="lbl" x="165.0" y="300.0">w</text></g><g onclick="alert('x')"><rect class="btn" x="196.0" y="271.0" width="58" height="58"/><text class="lbl" x="225.0" y="300.0">x</text></g><g onclick="alert('c')"><rect class="btn" x="256.0" y="271.0" width="58" height="58"/><text class="lbl" x="285.0" y="300.0">c</text></g><g onclick="alert('v')"><rect class="btn" x="316.0" y="271.0" width="58" height="58"/><text class="lbl" x="345.0" y="300.0">v</text></g><g onclick="alert('b')"><rect class="btn" x="376.0" y="271.0" width="58" height="58"/><text class="lbl" x="405.0" y="300.0">b</text></g><g onclick="alert('n')"><rect class="btn" x="436.0" y="271.0" width="58" height="58"/><text class="lbl" x="465.0" y="300.0">n</text></g><g onclick="alert(',')"><rect class="btn" x="496.0" y="271.0" width="58" height="58"/><text class="lbl" x="525.0" y="300.0">,</text></g><g onclick="alert(';')"><rect class="btn" x="556.0" y="271.0" width="58" height="58"/><text class="lbl" x="585.0" y="300.0">;</text></g><g onclick="alert(':')"><rect class="btn" x="616.0" y="271.0" width="58" height="58"/><text class="lbl" x="645.0" y="300.0">:</text></g><g onclick="alert('!')"><rect class="btn" x="676.0" y="271.0" width="58" height="58"/><text class="lbl" x="705.0" y="300.0">!</text></g><g onclick="alert('SHIFT')"><rect class="btn" x="736.0" y="271.0" width="163.0" height="58"/><text class="lbl" x="817.5" y="300.0">SHIFT</text></g><g onclick="alert('CTRL')"><rect class="btn" x="1" y="331.0" width="73.0" height="58"/><text class="lbl" x="37.5" y="360.0">CTRL</text></g><g onclick="alert('')"><rect class="btn" x="76.0" y="331.0" width="73.0" height="58"/><text class="lbl" x="112.5" y="360.0"></text></g><g onclick="alert('ALT')"><rect class="btn" x="151.0" y="331.0" width="73.0" height="58"/><text class="lbl" x="187.5" y="360.0">ALT</text></g><g onclick="alert('SPACE')"><rect class="btn" x="226.0" y="331.0" width="373.0" height="58"/><text class="lbl" x="412.5" y="360.0">SPACE</text></g><g onclick="alert('ALTGR')"><rect class="btn" x="601.0" y="331.0" width="73.0" height="58"/><text class="lbl" x="637.5" y="360.0">ALTGR</text></g><g onclick="alert('')"><rect class="btn" x="676.0" y="331.0" width="73.0" height="58"/><text class="lbl" x="712.5" y="360.0"></text></g><g onclick="alert('')"><rect class="btn" x="751.0" y="331.0" width="73.0" height="58"/><text class="lbl" x="787.5" y="360.0"></text></g><g onclick="alert('CTRL')"><rect class="btn" x="826.0" y="331.0" width="73.0" height="58"/><text class="lbl" x="862.5" y="360.0">CTRL</text></g><g onclick="alert('Compose')"><rect class="btn" x="916.0" y="1" width="58" height="58"/><text class="lbl" x="945.0" y="30.0">Compose</text></g><g onclick="alert('')"><rect class="btn" x="976.0" y="1" width="58" height="58"/><text class="lbl" x="1005.0" y="30.0"></text></g><g onclick="alert('PAUSE')"><rect class="btn" x="1036.0" y="1" width="58" height="58"/><text class="lbl" x="1065.0" y="30.0">PAUSE</text></g><g onclick="alert('INS')"><rect class="btn" x="916.0" y="91.0" width="58" height="58"/><text class="lbl" x="945.0" y="120.0">INS</text></g><g onclick="alert('HOME')"><rect class="btn" x="976.0" y="91.0" width="58" height="58"/><text class="lbl" x="1005.0" y="120.0">HOME</text></g><g onclick="alert('PGUP')"><rect class="btn" x="1036.0" y="91.0" width="58" height="58"/><text class="lbl" x="1065.0" y="120.0">PGUP</text></g><g onclick="alert('DEL')"><rect class="btn" x="916.0" y="151.0" width="58" height="58"/><text class="lbl" x="945.0" y="180.0">DEL</text></g><g onclick="alert('END')"><rect class="btn" x="976.0" y="151.0" width="58" height="58"/><text class="lbl" x="1005.0" y="180.0">END</text></g><g onclick="alert('PGDN')"><rect class="btn" x="1036.0" y="151.0" width="58" height="58"/><text class="lbl" x="1065.0" y="180.0">PGDN</text></g><g onclick="alert('↑')"><rect class="btn" x="976.0" y="271.0" width="58" height="58"/><text class="lbl" x="1005.0" y="300.0">↑</text></g><g onclick="alert('←')"><rect class="btn" x="916.0" y="331.0" width="58" height="58"/><text class="lbl" x="945.0" y="360.0">←</text></g><g onclick="alert('↓')"><rect class="btn" x="976.0" y="331.0" width="58" height="58"/><text class="lbl" x="1005.0" y="360.0">↓</text></g><g onclick="alert('→')"><rect class="btn" x="1036.0" y="331.0" width="58" height="58"/><text class="lbl" x="1065.0" y="360.0">→</text></g><g onclick="alert('NUM LOCK')"><rect class="btn" x="1111.0" y="91.0" width="58" height="58"/><text class="lbl" x="1140.0" y="120.0"><tspan x="1140.0" dy="0">NUM</tspan><tspan x="1140.0" dy="1em">LOCK</tspan></text></g><g onclick="alert('/ (KP)')"><rect class="btn" x="1171.0" y="91.0" width="58" height="58"/><text class="lbl" x="1200.0" y="120.0"><tspan x="1200.0" dy="0">/</tspan><tspan x="1200.0" dy="1em">(KP)</tspan></text></g><g onclick="alert('* (KP)')"><rect class="btn" x="1231.0" y="91.0" width="58" height="58"/><text class="lbl" x="1260.0" y="120.0"><tspan x="1260.0" dy="0">*</tspan><tspan x="1260.0" dy="1em">(KP)</tspan></text></g><g onclick="alert('- (KP)')"><rect class="btn" x="1291.0" y="91.0" width="58" height="58"/><text class="lbl" x="1320.0" y="120.0"><tspan x="1320.0" dy="0">-</tspan><tspan x="1320.0" dy="1em">(KP)</tspan></text></g><g onclick="alert('7 (KP)')"><rect class="btn" x="1111.0" y="151.0" width="58" height="58"/><text class="lbl" x="1140.0" y="180.0"><tspan x="1140.0" dy="0">7</tspan><tspan x="1140.0" dy="1em">(KP)</tspan></text></g><g onclick="alert('8 (KP)')"><rect class="btn" x="1171.0" y="151.0" width="58" height="58"/><text class="lbl" x="1200.0" y="180.0"><tspan x="1200.0" dy="0">8</tspan><tspan x="1200.0" dy="1em">(KP)</tspan></text></g><g onclick="alert('9 (KP)')"><rect class="btn" x="1231.0" y="151.0" width="58" height="58"/><text class="lbl" x="1260.0" y="180.0"><tspan x="1260.0" dy="0">9</tspan><tspan x="1260.0" dy="1em">(KP)</tspan></text></g><g onclick="alert('4 (KP)')"><rect class="btn" x="1111.0" y="211.0" width="58" height="58"/><text class="lbl" x="1140.0" y="240.0"><tspan x="1140.0" dy="0">4</tspan><tspan x="1140.0" dy="1em">(KP)</tspan></text></g><g onclick="alert('5 (KP)')"><rect class="btn" x="1171.0" y="211.0" width="58" height="58"/><text class="lbl" x="1200.0" y="240.0"><tspan x="1200.0" dy="0">5</tspan><tspan x="1200.0" dy="1em">(KP)</tspan></text></g><g onclick="alert('6 (KP)')"><rect class="btn" x="1231.0" y="211.0" width="58" height="58"/><text class="lbl" x="1260.0" y="240.0"><tspan x="1260.0" dy="0">6</tspan><tspan x="1260.0" dy="1em">(KP)</tspan></text></g><g onclick="alert('+ (KP)')"><rect class="btn" x="1291.0" y="151.0" width="58" height="118.0"/><text class="lbl" x="1320.0" y="210.0"><tspan x="1320.0" dy="0">+</tspan><tspan x="1320.0" dy="1em">(KP)</tspan></text></g><g onclick="alert('1 (KP)')"><rect class="btn" x="1111.0" y="271.0" width="58" height="58"/><text class="lbl" x="1140.0" y="300.0"><tspan x="1140.0" dy="0">1</tspan><tspan x="1140.0" dy="1em">(KP)</tspan></text></g><g onclick="alert('2 (KP)')"><rect class="btn" x="1171.0" y="271.0" width="58" height="58"/><text class="lbl" x="1200.0" y="300.0"><tspan x="1200.0" dy="0">2</tspan><tspan x="1200.0" dy="1em">(KP)</tspan></text></g><g onclick="alert('3 (KP)')"><rect class="btn" x="1231.0" y="271.0" width="58" height="58"/><text class="lbl" x="1260.0" y="300.0"><tspan x="1260.0" dy="0">3</tspan><tspan x="1260.0" dy="1em">(KP)</tspan></text></g><g onclick="alert('0 (KP)')"><rect class="btn" x="1111.0" y="331.0" width="118" height="58"/><text class="lbl" x="1170.0" y="360.0"><tspan x="1170.0" dy="0">0</tspan><tspan x="1170.0" dy="1em">(KP)</tspan></text></g><g onclick="alert('. (KP)')"><rect class="btn" x="1231.0" y="331.0" width="58" height="58"/><text class="lbl" x="1260.0" y="360.0"><tspan x="1260.0" dy="0">.</tspan><tspan x="1260.0" dy="1em">(KP)</tspan></text></g><g onclick="alert('Enter (KP)')"><rect class="btn" x="1291.0" y="271.0" width="58" height="118.0"/><text class="lbl" x="1320.0" y="330.0"><tspan x="1320.0" dy="0">Enter</tspan><tspan x="1320.0" dy="1em">(KP)</tspan></text></g></g>
<g></g></g>
</svg>
