<?xml version="1.0" encoding="UTF-8" standalone="no"?>
<!DOCTYPE svg PUBLIC "-//W3C//DTD SVG 1.1//EN" "http://www.w3.org/Graphics/SVG/1.1/DTD/svg11.dtd">
<svg width="1353.0" height="393.0" viewBox="-1 -1 1352.0 392.0" xmlns="http://www.w3.org/2000/svg" xmlns:xlink="http://www.w3.org/1999/xlink">
<g font-family="Arial" font-size="15px" font-size-adjust="0.518"><g fill="#eee" stroke="#ccc" stroke-linejoin="round"><rect x="1" y="1" width="58" height="58"/><rect x="121" y="1" width="58" height="58"/><rect x="181" y="1" width="58" height="58"/><rect x="241" y="1" width="58" height="58"/><rect x="301" y="1" width="58" height="58"/><rect x="391.0" y="1" width="58" height="58"/><rect x="451.0" y="1" width="58" height="58"/><rect x="511.0" y="1" width="58" height="58"/><rect x="571.0" y="1" width="58" height="58"/><rect x="661.0" y="1" width="58" height="58"/><rect x="721.0" y="1" width="58" height="58"/><rect x="781.0" y="1" width="58" height="58"/><rect x="841.0" y="1" width="58" height="58"/><rect x="1" y="91.0" width="58" height="58"/><rect x="61" y="91.0" width="58" height="58"/><rect x="121" y="91.0" width="58" height="58"/><rect x="181" y="91.0" width="58" height="58"/><rect x="241" y="91.0" width="58" height="58"/><rect x="301" y="91.0" width="58" height="58"/><rect x="361" y="91.0" width="58" height="58"/><rect x="421" y="91.0" width="58" height="58"/><rect x="481" y="91.0" width="58" height="58"/><rect x="541" y="91.0" width="58" height="58"/><rect x="601" y="91.0" width="58" height="58"/><rect x="661" y="91.0" width="58" height="58"/><rect x="721" y="91.0" width="58" height="58"/><rect x="781" y="91.0" width="118" height="58"/><rect x="1" y="151.0" width="88.0" height="58"/><rect x="91.0" y="151.0" width="58" height="58"/><rect x="151.0" y="151.0" width="58" height="58"/><rect x="211.0" y="151.0" width="58" height="58"/><rect x="271.0" y="151.0" width="58" height="58"/><rect x="331.0" y="151.0" width="58" height="58"/><rect x="391.0" y="151.0" width="58" height="58"/><rect x="451.0" y="151.0" width="58" height="58"/><rect x="511.0" y="151.0" width="58" height="58"/><rect x="571.0" y="151.0" width="58" height="58"/><rect x="631.0" y="151.0" width="58" height="58"/><rect x="691.0" y="151.0" width="58" height="58"/><rect x="751.0" y="151.0" width="58" height="58"/><rect x="1" y="211.0" width="103.0" height="58"/><rect x="106.0" y="211.0" width="58" height="58"/><rect x="166.0" y="211.0" width="58" height="58"/><rect x="226.0" y="211.0" width="58" height="58"/><rect x="286.0" y="211.0" width="58" height="58"/><rect x="346.0" y="211.0" width="58" height="58"/><rect x="406.0" y="211.0" width="58" height="58"/><rect x="466.0" y="211.0" width="58" height="58"/><rect x="526.0" y="211.0" width="58" height="58"/><rect x="586.0" y="211.0" width="58" height="58"/><rect x="646.0" y="211.0" width="58" height="58"/><rect x="706.0" y="211.0" width="58" height="58"/><rect x="766.0" y="211.0" width="58" height="58"/><polygon points="811.0,151.0 899.0,151.0 899.0,269.0 826.0,269.0 826.0,209.0 811.0,209.0 811.0,151.0"/><rect x="1" y="271.0" width="73.0" height="58"/><rect x="76.0" y="271.0" width="58" height="58"/><rect x="136.0" y="271.0" width="58" height="58"/><rect x="196.0" y="271.0" width="58" height="58"/><rect x="256.0" y="271.0" width="58" height="58"/><rect x="316.0" y="271.0" width="58" height="58"/><rect x="376.0" y="271.0" width="58" height="58"/><rect x="436.0" y="271.0" width="58" height="58"/><rect x="496.0" y="271.0" width="58" height="58"/><rect x="556.0" y="271.0" width="58" height="58"/><rect x="616.0" y="271.0" width="58" height="58"/><rect x="676.0" y="271.0" width="58" height="58"/><rect x="736.0" y="271.0" width="163.0" height="58"/><rect x="1" y="331.0" width="73.0" height="58"/><rect x="76.0" y="331.0" width="73.0" height="58"/><rect x="151.0" y="331.0" width="73.0" height="58"/><rect x="226.0" y="331.0" width="373.0" height="58"/><rect x="601.0" y="331.0" width="73.0" height="58"/><rect x="676.0" y="331.0" width="73.0" height="58"/><rect x="751.0" y="331.0" width="73.0" height="58"/><rect x="826.0" y="331.0" width="73.0" height="58"/><rect x="916.0" y="1" width="58" height="58"/><rect x="976.0" y="1" width="58" height="58"/><rect x="1036.0" y="1" width="58" height="58"/><rect x="916.0" y="91.0" width="58" height="58"/><rect x="976.0" y="91.0" width="58" height="58"/><rect x="1036.0" y="91.0" width="58" height="58"/><rect x="916.0" y="151.0" width="58" height="58"/><rect x="976.0" y="151.0" width="58" height="58"/><rect x="1036.0" y="151.0" width="58" height="58"/><rect x="976.0" y="271.0" width="58" height="58"/><rect x="916.0" y="331.0" width="58" height="58"/><rect x="976.0" y="331.0" width="58" height="58"/><rect x="1036.0" y="331.0" width="58" height="58"/><rect x="1111.0" y="91.0" width="58" height="58"/><rect x="1171.0" y="91.0" width="58" height="58"/><rect x="1231.0" y="91.0" width="58" height="58"/><rect x="1291.0" y="91.0" width="58" height="58"/><rect x="1111.0" y="151.0" width="58" height="58"/><rect x="1171.0" y="151.0" width="58" height="58"/><rect x="1231.0" y="151.0" width="58" height="58"/><rect x="1111.0" y="211.0" width="58" height="58"/><rect x="1171.0" y="211.0" width="58" height="58"/><rect x="1231.0" y="211.0" width="58" height="58"/><rect x="1291.0" y="151.0" width="58" height="118.0"/><rect x="1111.0" y="271.0" width="58" height="58"/><rect x="1171.0" y="271.0" width="58" height="58"/><rect x="1231.0" y="271.0" width="58" height="58"/><rect x="1111.0" y="331.0" width="118" height="58"/><rect x="1231.0" y="331.0" width="58" height="58"/><rect x="1291.0" y="271.0" width="58" height="118.0"/></g>
<g fill="#333" text-anchor="middle" text-align="center"><text x="30.0" y="30.0">ESC</text><text x="150.0" y="30.0">F1</text><text x="210.0" y="30.0">F2</text><text x="270.0" y="30.0">F3</text><text x="330.0" y="30.0">F4</text><text x="420.0" y="30.0">F5</text><text x="480.0" y="30.0">F6</text><text x="540.0" y="30.0">F7</text><text x="600.0" y="30.0">F8</text><text x="690.0" y="30.0">F9</text><text x="750.0" y="30.0">F10</text><text x="810.0" y="30.0">F11</text><text x="870.0" y="30.0">F12</text><text x="30.0" y="120.0">`</text><text x="90.0" y="120.0">1</text><text x="150.0" y="120.0">2</text><text x="210.0" y="120.0">3</text><text x="270.0" y="120.0">4</text><text x="330.0" y="120.0">5</text><text x="390.0" y="120.0">6</text><text x="450.0" y="120.0">7</text><text x="510.0" y="120.0">8</text><text x="570.0" y="120.0">9</text><text x="630.0" y="120.0">0</text><text x="690.0" y="120.0">-</text><text x="750.0" y="120.0">=</text><text x="840.0" y="120.0">BACKSPACE</text><text x="45.0" y="180.0">TAB</text><text x="120.0" y="180.0">q</text><text x="180.0" y="180.0">w</text><text x="240.0" y="180.0">e</text><text x="300.0" y="180.0">r</text><text x="360.0" y="180.0">t</text><text x="420.0" y="180.0">y</text><text x="480.0" y="180.0">u</text><text x="540.0" y="180.0">i</text><text x="600.0" y="180.0">o</text><text x="660.0" y="180.0">p</text><text x="720.0" y="180.0">[</text><text x="780.0" y="180.0">]</text><text x="52.5" y="240.0"><tspan x="52.5" dy="0">CAPS</tspan><tspan x="52.5" dy="1em">LOCK</tspan></text><text x="135.0" y="240.0">a</text><text x="195.0" y="240.0">s</text><text x="255.0" y="240.0">d</text><text x="315.0" y="240.0">f</text><text x="375.0" y="240.0">g</text><text x="435.0" y="240.0">h</text><text x="495.0" y="240.0">j</text><text x="555.0" y="240.0">k</text><text x="615.0" y="240.0">l</text><text x="675.0" y="240.0">;</text><text x="735.0" y="240.0">'</text><text x="795.0" y="240.0">\</text><text x="855.0" y="180.0">↵</text><text x="37.5" y="300.0">SHIFT</text><text x="105.0" y="300.0">&lt;</text><text x="165.0" y="300.0">z</text><text x="225.0" y="300.0">x</text><text x="285.0" y="300.0">c</text><text x="345.0" y="300.0">v</text><text x="405.0" y="300.0">b</text><text x="465.0" y="300.0">n</text><text x="525.0" y="300.0">m</text><text x="585.0" y="300.0">,</text><text x="645.0" y="300.0">.</text><text x="705.0" y="300.0">/</text><text x="817.5" y="300.0">SHIFT</text><text x="37.5" y="360.0">CTRL</text><text x="112.5" y="360.0">?WIN</text><text x="187.5" y="360.0">ALT</text><text x="412.5" y="360.0">SPACE</text><text x="637.5" y="360.0">AltGr_Lock</text><text x="712.5" y="360.0">?WIN</text><text x="787.5" y="360.0">?MENU</text><text x="862.5" y="360.0">CTRL</text><text x="945.0" y="30.0">Control_backslash</text><text x="1005.0" y="30.0"><tspan x="1005.0" dy="0">SCROLL</tspan><tspan x="1005.0" dy="1em">LOCK</tspan></text><text x="1065.0" y="30.0">BREAK</text><text x="945.0" y="120.0">INS</text><text x="1005.0" y="120.0">HOME</text><text x="1065.0" y="120.0">PGUP</text><text x="945.0" y="180.0">DEL</text><text x="1005.0" y="180.0">END</text><text x="1065.0" y="180.0">PGDN</text><text x="1005.0" y="300.0">↑</text><text x="945.0" y="360.0">←</text><text x="1005.0" y="360.0">↓</text><text x="1065.0" y="360.0">→</text><text x="1140.0" y="120.0"><tspan x="1140.0" dy="0">NUM</tspan><tspan x="1140.0" dy="1em">LOCK</tspan></text><text x="1200.0" y="120.0"><tspan x="1200.0" dy="0">/</tspan><tspan x="1200.0" dy="1em">(KP)</tspan></text><text x="1260.0" y="120.0"><tspan x="1260.0" dy="0">*</tspan><tspan x="1260.0" dy="1em">(KP)</tspan></text><text x="1320.0" y="120.0"><tspan x="1320.0" dy="0">-</tspan><tspan x="1320.0" dy="1em">(KP)</tspan></text><text x="1140.0" y="180.0"><tspan x="1140.0" dy="0">7</tspan><tspan x="1140.0" dy="1em">(KP)</tspan></text><text x="1200.0" y="180.0"><tspan x="1200.0" dy="0">8</tspan><tspan x="1200.0" dy="1em">(KP)</tspan></text><text x="1260.0" y="180.0"><tspan x="1260.0" dy="0">9</tspan><tspan x="1260.0" dy="1em">(KP)</tspan></text><text x="1140.0" y="240.0"><tspan x="1140.0" dy="0">4</tspan><tspan x="1140.0" dy="1em">(KP)</tspan></text><text x="1200.0" y="240.0"><tspan x="1200.0" dy="0">5</tspan><tspan x="1200.0" dy="1em">(KP)</tspan></text><text x="1260.0" y="240.0"><tspan x="1260.0" dy="0">6</tspan><tspan x="1260.0" dy="1em">(KP)</tspan></text><text x="1320.0" y="210.0"><tspan x="1320.0" dy="0">+</tspan><tspan x="1320.0" dy="1em">(KP)</tspan></text><text x="1140.0" y="300.0"><tspan x="1140.0" dy="0">1</tspan><tspan x="1140.0" dy="1em">(KP)</tspan></text><text x="1200.0" y="300.0"><tspan x="1200.0" dy="0">2</tspan><tspan x="1200.0" dy="1em">(KP)</tspan></text><text x="1260.0" y="300.0"><tspan x="1260.0" dy="0">3</tspan><tspan x="1260.0" dy="1em">(KP)</tspan></text><text x="1170.0" y="360.0"><tspan x="1170.0" dy="0">0</tspan><tspan x="1170.0" dy="1em">(KP)</tspan></text><text x="1260.0" y="360.0"><tspan x="1260.0" dy="0">.</tspan><tspan x="1260.0" dy="1em">(KP)</tspan></text><text x="1320.0" y="330.0"><tspan x="1320.0" dy="0">Enter</tspan><tspan x="1320.0" dy="1em">(KP)</tspan></text></g></g>
</svg>
